#!OML:ASF H:\Dans Jumps\Project 1\Capture day 1\Session 1\subject.ASF
:FULLY-SPECIFIED
:DEGREES
611
root 0.657208 17.6763 11.7613 7.61391 -2.43191 -1.40138
lowerback -4.37701 -0.233583 -0.175155
upperback 1.01029 -0.358156 1.65032
thorax 3.50766 -0.199837 1.77299
lowerneck -13.5181 -1.00045 -2.31423
upperneck 16.2197 -1.48949 3.29294
head 7.24326 -0.555757 1.30297
rclavicle -1.88845e-015 7.7526e-015
rhumerus -26.8329 -15.4099 -79.6901
rradius 23.7294
rwrist 37.609
rhand -16.041 -26.7164
rfingers 7.12502
rthumb 10.1606 -56.4511
lclavicle -1.88845e-015 7.7526e-015
lhumerus -24.1923 0.560542 89.5278
lradius 18.6708
lwrist 2.98514
lhand -24.2446 -5.2799
lfingers 7.12502
lthumb 2.24115 24.6881
rfemur -13.07 -4.1116 21.1954
rtibia 21.4276
rfoot -15.0644 -1.87272
rtoes 10.1408
lfemur -12.2471 8.79383 -19.2322
ltibia 18.0334
lfoot -10.5241 7.15695
ltoes -4.12046
612
root 0.656546 17.676 11.7612 7.59902 -2.4259 -1.39732
lowerback -4.37473 -0.235895 -0.173946
upperback 1.01375 -0.361331 1.65007
thorax 3.51004 -0.201417 1.77183
lowerneck -13.5284 -0.997224 -2.31823
upperneck 16.2337 -1.48722 3.30806
head 7.2497 -0.553383 1.30885
rclavicle -5.76476e-015 1.98785e-016
rhumerus -26.8598 -15.4238 -79.676
rradius 23.7124
rwrist 37.6199
rhand -16.0313 -26.6974
rfingers 7.12502
rthumb 10.17 -56.4316
lclavicle -5.76476e-015 1.98785e-016
lhumerus -24.2002 0.463961 89.5815
lradius 18.6851
lwrist 3.01534
lhand -24.216 -5.18503
lfingers 7.12502
lthumb 2.26873 24.7827
rfemur -13.0593 -4.12959 21.1939
rtibia 21.4403
rfoot -15.0717 -1.88017
rtoes 10.0649
lfemur -12.2327 8.78973 -19.2324
ltibia 18.0361
lfoot -10.5252 7.16101
ltoes -4.12542
613
root 0.655785 17.6757 11.7611 7.58505 -2.42384 -1.39241
lowerback -4.37521 -0.236522 -0.176368
upperback 1.01793 -0.362096 1.65021
thorax 3.51468 -0.201891 1.77328
lowerneck -13.5174 -0.99687 -2.3369
upperneck 16.2367 -1.48763 3.33277
head 7.24906 -0.55256 1.32
rclavicle 8.00108e-015 -4.17448e-015
rhumerus -26.8857 -15.4385 -79.6607
rradius 23.6944
rwrist 37.6326
rhand -16.0257 -26.6747
rfingers 7.12502
rthumb 10.1754 -56.4086
lclavicle 8.00108e-015 -4.17448e-015
lhumerus -24.2058 0.370525 89.632
lradius 18.6998
lwrist 3.04931
lhand -24.1903 -5.10406
lfingers 7.12502
lthumb 2.29356 24.8634
rfemur -13.0515 -4.1384 21.1909
rtibia 21.4535
rfoot -15.0785 -1.88743
rtoes 10.0159
lfemur -12.218 8.78677 -19.2331
ltibia 18.0377
lfoot -10.5263 7.16615
ltoes -4.12715
614
root 0.655016 17.6755 11.761 7.57166 -2.42256 -1.38799
lowerback -4.3768 -0.236384 -0.179091
upperback 1.02183 -0.361842 1.6508
thorax 3.51962 -0.201869 1.77544
lowerneck -13.5088 -0.992432 -2.35633
upperneck 16.2425 -1.48294 3.3608
head 7.24964 -0.549006 1.33288
rclavicle -6.65929e-015 3.57812e-015
rhumerus -26.9113 -15.456 -79.6436
rradius 23.6752
rwrist 37.6504
rhand -16.0216 -26.6562
rfingers 7.12502
rthumb 10.1793 -56.3899
lclavicle -6.65929e-015 3.57812e-015
lhumerus -24.214 0.28639 89.6775
lradius 18.7158
lwrist 3.07627
lhand -24.1716 -5.05117
lfingers 7.12502
lthumb 2.31164 24.9161
rfemur -13.0439 -4.14578 21.1886
rtibia 21.4656
rfoot -15.085 -1.89477
rtoes 9.97147
lfemur -12.2042 8.78109 -19.2329
ltibia 18.0398
lfoot -10.5275 7.17326
ltoes -4.12283
615
root 0.654292 17.6752 11.7608 7.55813 -2.42256 -1.3829
lowerback -4.38 -0.23519 -0.18172
upperback 1.0269 -0.360179 1.65043
thorax 3.52662 -0.201149 1.77667
lowerneck -13.5067 -0.986089 -2.37088
upperneck 16.2506 -1.47609 3.38597
head 7.25198 -0.544309 1.34425
rclavicle -9.19379e-015 1.27222e-014
rhumerus -26.9339 -15.4776 -79.6267
rradius 23.654
rwrist 37.6711
rhand -16.0175 -26.6395
rfingers 7.12502
rthumb 10.1833 -56.373
lclavicle -9.19379e-015 1.27222e-014
lhumerus -24.2224 0.205199 89.7175
lradius 18.7306
lwrist 3.09878
lhand -24.1643 -5.03905
lfingers 7.12502
lthumb 2.3187 24.9281
rfemur -13.0355 -4.15418 21.1852
rtibia 21.476
rfoot -15.0915 -1.89801
rtoes 9.93763
lfemur -12.1902 8.77559 -19.2335
ltibia 18.0432
lfoot -10.5294 7.18036
ltoes -4.10319
616
root 0.653567 17.6749 11.7607 7.54371 -2.42261 -1.38089
lowerback -4.3825 -0.233597 -0.181539
upperback 1.03065 -0.358148 1.65084
thorax 3.53185 -0.20018 1.77714
lowerneck -13.519 -0.974605 -2.37317
upperneck 16.2689 -1.46336 3.4032
head 7.25986 -0.536584 1.35163
rclavicle -4.62174e-015 1.78906e-014
rhumerus -26.9585 -15.5015 -79.6081
rradius 23.6307
rwrist 37.6986
rhand -15.9983 -26.6417
rfingers 7.12502
rthumb 10.2018 -56.3743
lclavicle -4.62174e-015 1.78906e-014
lhumerus -24.2349 0.141382 89.7494
lradius 18.7455
lwrist 3.10809
lhand -24.1547 -5.03395
lfingers 7.12502
lthumb 2.32796 24.9331
rfemur -13.0237 -4.1618 21.185
rtibia 21.4832
rfoot -15.0964 -1.9008
rtoes 9.91561
lfemur -12.1771 8.76982 -19.2305
ltibia 18.0497
lfoot -10.5314 7.18913
ltoes -4.08819
